REM DIRINDEX 1\2,1\3,1\4,1\5
REM DIRNAME cjc004,folder01,folder02,folder03,folder04
TITLE ""
FILE "1Q_t_1560-1569.mp3" MP3
  TRACK 01 AUDIO
    TITLE "3:cjc004_5586"
    INDEX 01 00:00:00
  TRACK 02 AUDIO
    TITLE "0:"
    INDEX 01 00:00:74
  TRACK 03 AUDIO
    TITLE "4:cjc004_5587"
    INDEX 01 00:01:32
  TRACK 04 AUDIO
    TITLE "0:"
    INDEX 01 00:02:61
  TRACK 05 AUDIO
    TITLE "5:cjc004_5588"
    INDEX 01 00:03:14
  TRACK 06 AUDIO
    TITLE "0:"
    INDEX 01 00:08:24
  TRACK 07 AUDIO
    TITLE "3:cjc004_5589"
    INDEX 01 00:09:04
  TRACK 08 AUDIO
    TITLE "0:"
    INDEX 01 00:10:10
  TRACK 09 AUDIO
    TITLE "4:cjc004_5590"
    INDEX 01 00:10:37
  TRACK 10 AUDIO
    TITLE "0:"
    INDEX 01 00:11:62
  TRACK 11 AUDIO
    TITLE "5:cjc004_5591"
    INDEX 01 00:12:11
  TRACK 12 AUDIO
    TITLE "0:"
    INDEX 01 00:16:38
  TRACK 13 AUDIO
    TITLE "3:cjc004_5592"
    INDEX 01 00:17:18
  TRACK 14 AUDIO
    TITLE "0:"
    INDEX 01 00:18:33
  TRACK 15 AUDIO
    TITLE "4:cjc004_5593"
    INDEX 01 00:18:62
  TRACK 16 AUDIO
    TITLE "0:"
    INDEX 01 00:20:36
  TRACK 17 AUDIO
    TITLE "5:cjc004_5594"
    INDEX 01 00:20:57
  TRACK 18 AUDIO
    TITLE "0:"
    INDEX 01 00:25:31
  TRACK 19 AUDIO
    TITLE "3:cjc004_5595"
    INDEX 01 00:26:18
  TRACK 20 AUDIO
    TITLE "0:"
    INDEX 01 00:27:36
  TRACK 21 AUDIO
    TITLE "4:cjc004_5596"
    INDEX 01 00:27:65
  TRACK 22 AUDIO
    TITLE "0:"
    INDEX 01 00:29:05
  TRACK 23 AUDIO
    TITLE "5:cjc004_5597"
    INDEX 01 00:29:31
  TRACK 24 AUDIO
    TITLE "0:"
    INDEX 01 00:33:24
  TRACK 25 AUDIO
    TITLE "3:cjc004_5598"
    INDEX 01 00:34:04
  TRACK 26 AUDIO
    TITLE "0:"
    INDEX 01 00:35:19
  TRACK 27 AUDIO
    TITLE "4:cjc004_5599"
    INDEX 01 00:35:51
  TRACK 28 AUDIO
    TITLE "0:"
    INDEX 01 00:36:70
  TRACK 29 AUDIO
    TITLE "5:cjc004_5600"
    INDEX 01 00:37:26
  TRACK 30 AUDIO
    TITLE "0:"
    INDEX 01 00:42:31
  TRACK 31 AUDIO
    TITLE "3:cjc004_5601"
    INDEX 01 00:43:03
  TRACK 32 AUDIO
    TITLE "0:"
    INDEX 01 00:44:14
  TRACK 33 AUDIO
    TITLE "4:cjc004_5602"
    INDEX 01 00:44:42
  TRACK 34 AUDIO
    TITLE "0:"
    INDEX 01 00:45:51
  TRACK 35 AUDIO
    TITLE "5:cjc004_5603"
    INDEX 01 00:46:02
  TRACK 36 AUDIO
    TITLE "0:"
    INDEX 01 00:49:49
  TRACK 37 AUDIO
    TITLE "3:cjc004_5604"
    INDEX 01 00:50:27
  TRACK 38 AUDIO
    TITLE "0:"
    INDEX 01 00:51:32
  TRACK 39 AUDIO
    TITLE "4:cjc004_5605"
    INDEX 01 00:51:62
  TRACK 40 AUDIO
    TITLE "0:"
    INDEX 01 00:53:19
  TRACK 41 AUDIO
    TITLE "5:cjc004_5606"
    INDEX 01 00:53:49
  TRACK 42 AUDIO
    TITLE "0:"
    INDEX 01 00:57:31
  TRACK 43 AUDIO
    TITLE "3:cjc004_5607"
    INDEX 01 00:58:17
  TRACK 44 AUDIO
    TITLE "0:"
    INDEX 01 00:59:26
  TRACK 45 AUDIO
    TITLE "4:cjc004_5608"
    INDEX 01 00:59:59
  TRACK 46 AUDIO
    TITLE "0:"
    INDEX 01 01:01:13
  TRACK 47 AUDIO
    TITLE "5:cjc004_5609"
    INDEX 01 01:01:40
  TRACK 48 AUDIO
    TITLE "0:"
    INDEX 01 01:05:62
  TRACK 49 AUDIO
    TITLE "3:cjc004_5610"
    INDEX 01 01:06:45
  TRACK 50 AUDIO
    TITLE "0:"
    INDEX 01 01:07:49
  TRACK 51 AUDIO
    TITLE "4:cjc004_5611"
    INDEX 01 01:08:07
  TRACK 52 AUDIO
    TITLE "0:"
    INDEX 01 01:09:16
  TRACK 53 AUDIO
    TITLE "5:cjc004_5612"
    INDEX 01 01:09:44
  TRACK 54 AUDIO
    TITLE "0:"
    INDEX 01 01:14:19
  TRACK 55 AUDIO
    TITLE "3:cjc004_5613"
    INDEX 01 01:14:68
  TRACK 56 AUDIO
    TITLE "0:"
    INDEX 01 01:15:70
  TRACK 57 AUDIO
    TITLE "4:cjc004_5614"
    INDEX 01 01:16:24
  TRACK 58 AUDIO
    TITLE "0:"
    INDEX 01 01:17:41
  TRACK 59 AUDIO
    TITLE "5:cjc004_5615"
    INDEX 01 01:17:69
  TRACK 60 AUDIO
    TITLE "0:"
    INDEX 01 01:22:48
